# xmcd
#
# Track frame offsets: 
#        150
#        14328
#        32875
#        43674
#        54823
#        69396
#        82199
#        93564
#        112433
#        120014
#        129902
#        141544
#        150327
#
# Disc length: 2173 seconds
#
# Revision: 0
# Processed by: cddbd v1.5.2PL0 Copyright (c) Steve Scherf et al.
# Submitted via: ExactAudioCopyFreeDBPlugin 1.0
#
DISCID=ab087b0d
DTITLE=Zelenáči - Jen tak dál
DYEAR=2008
DGENRE=Country
TTITLE0=Pojďte k nám
TTITLE1=Vzpomínky jsou bumerang
TTITLE2=Zchudlej kovboj
TTITLE3=Velká cena je job
TTITLE4=Oranžový expres
TTITLE5=Adios milá jessico
TTITLE6=Na sluneční straně hor
TTITLE7=Netoužím po lustrech z křišťálů
TTITLE8=Za tebou jít
TTITLE9=Kovbojskej sen
TTITLE10=Šedivý blues
TTITLE11=Zlá žena
TTITLE12=Tak to hrej
EXTD=
EXTT0=
EXTT1=
EXTT2=
EXTT3=
EXTT4=
EXTT5=
EXTT6=
EXTT7=
EXTT8=
EXTT9=
EXTT10=
EXTT11=
EXTT12=
PLAYORDER=
